<?xml version="1.0" encoding="UTF-8" standalone="no"?>
<!-- Created with Inkscape (http://www.inkscape.org/) -->

<svg
   xmlns:dc="http://purl.org/dc/elements/1.1/"
   xmlns:cc="http://creativecommons.org/ns#"
   xmlns:rdf="http://www.w3.org/1999/02/22-rdf-syntax-ns#"
   xmlns:svg="http://www.w3.org/2000/svg"
   xmlns="http://www.w3.org/2000/svg"
   version="1.1"
   width="300"
   height="370"
   id="svg4788">
  <defs
     id="defs4790" />
  <metadata
     id="metadata4793">
    <rdf:RDF>
      <cc:Work
         rdf:about="">
        <dc:format>image/svg+xml</dc:format>
        <dc:type
           rdf:resource="http://purl.org/dc/dcmitype/StillImage" />
        <dc:title></dc:title>
      </cc:Work>
    </rdf:RDF>
  </metadata>
  <g
     transform="translate(0,-682.36218)"
     id="layer1">
    <g
       transform="matrix(1.6435636,0,0,1.6435636,-2214.4847,54.12709)"
       id="g4491">
      <path
         d="m 1438.6329,399.80363 -30.4217,-17.564 -60.8434,35.128 60.8434,35.128 0,-35.128 z"
         id="path4457"
         style="fill:#40aedf;fill-opacity:1;stroke:none" />
      <path
         d="m 1438.6329,399.80363 -30.4217,17.564 30.4217,17.564 z"
         id="path4459"
         style="fill:#dfe4bd;fill-opacity:1;stroke:none" />
      <path
         d="m 1438.6329,434.93163 -30.4217,-17.564 0,35.128 z"
         id="path4461"
         style="fill:#82cdf4;fill-opacity:1;stroke:none" />
      <path
         d="m 1438.6329,399.80363 30.4217,17.564 -30.4217,17.564 z"
         id="path4463"
         style="fill:#ebf0c7;fill-opacity:1;stroke:none" />
      <path
         d="m 1469.0546,417.36763 -30.4217,17.564 30.4217,17.564 z"
         id="path4465"
         style="fill:#eae026;fill-opacity:1;stroke:none" />
      <path
         d="m 1438.6329,399.80363 30.4217,-17.564 60.8434,35.128 -60.8434,35.128 0,-35.128 z"
         id="path4467"
         style="fill:#b9c809;fill-opacity:1;stroke:none" />
      <path
         d="m 1438.6329,434.93163 -30.4217,17.564 30.4217,17.564 z"
         id="path4469"
         style="fill:#17b3e6;fill-opacity:1;stroke:none" />
      <path
         d="m 1438.6329,434.93163 0,35.128 30.4217,-17.564 z"
         id="path4471"
         style="fill:#c4cd0e;fill-opacity:1;stroke:none" />
      <path
         d="m 1408.2112,452.49563 0,35.128 30.4217,-17.564 z"
         id="path4473"
         style="fill:#1e98d7;fill-opacity:1;stroke:none" />
      <path
         d="m 1469.0546,452.49563 -30.4217,17.564 30.4217,17.564 z"
         id="path4475"
         style="fill:#9ebf1a;fill-opacity:1;stroke:none" />
      <path
         d="m 1438.6329,470.05963 0,35.128 -30.4217,-17.564 z"
         id="path4477"
         style="fill:#146286;fill-opacity:1;stroke:none" />
      <path
         d="m 1438.6329,470.05963 0,35.128 30.4217,-17.564 z"
         id="path4479"
         style="fill:#649730;fill-opacity:1;stroke:none" />
      <path
         d="m 1347.3678,417.36763 0,70.256 60.8434,-35.128 z"
         id="path4481"
         style="fill:#2285c8;fill-opacity:1;stroke:none" />
      <path
         d="m 1408.2112,452.49563 -60.8434,35.128 60.8434,35.128 30.4217,-17.564 -30.4217,-17.564 z"
         id="path4485"
         style="fill:#0d72ba;fill-opacity:1;stroke:none" />
      <path
         d="m 1529.898,417.36763 -60.8434,35.128 60.8434,35.128 z"
         id="path4487"
         style="fill:#8fba22;fill-opacity:1;stroke:none" />
      <path
         d="m 1469.0546,452.49563 60.8434,35.128 -60.8434,35.128 -30.4217,-17.564 30.4217,-17.564 z"
         id="path4489"
         style="fill:#70af2d;fill-opacity:1;stroke:none" />
    </g>
    <g
       transform="matrix(2.3850938,0,0,2.3850938,-1878.3554,-664.48094)"
       id="text4955"
       style="font-size:14px;font-style:normal;font-weight:normal;line-height:125%;letter-spacing:0px;word-spacing:0px;fill:#000000;fill-opacity:1;stroke:none;font-family:Sans">
      <path
         d="m 787.58401,717.69121 -0.0446,-35.72423 17.58203,0 c 2.00519,2e-5 3.71417,0.63349 5.12695,1.90039 1.41274,1.26695 2.11912,2.79364 2.11914,4.58008 l 0,11.45703 c -2e-5,1.78646 -0.7064,3.31315 -2.11914,4.58008 -1.41278,1.26693 -3.12176,1.90039 -5.12695,1.90039 l -13.17969,0 0,11.30626 z m 16.93583,-15.24376 c 0.98435,0 1.80466,-0.34635 2.46093,-1.03906 0.65623,-0.69271 0.98436,-1.51302 0.98438,-2.46094 l 0,-9.57031 c -2e-5,-0.98436 -0.36461,-1.80467 -1.09375,-2.46094 -0.72919,-0.65623 -1.64976,-0.98436 -2.76172,-0.98438 l -12.16797,0 0,16.48828 11.04688,0.0273 -1.1211,0 c 0.29165,0 1.17577,0 2.65235,0 z"
         id="path4968"
         style="font-size:56px;font-variant:normal;font-stretch:normal;stroke:none;font-family:Formation Sans Regular;-inkscape-font-specification:Formation Sans Regular" />
      <path
         d="m 822.34796,681.96698 c -1.98698,2e-5 -3.6823,0.63349 -5.08594,1.90039 -1.40364,1.26695 -2.10547,2.79364 -2.10546,4.58008 l 0,17.91015 4.40234,0 0,-16.98046 c -10e-6,-1.00259 0.36458,-1.83202 1.09375,-2.48829 0.72916,-0.65622 1.64062,-0.98435 2.73437,-0.98437 l 9.98047,0 0,-3.9375 z"
         id="path4970"
         style="font-size:56px;font-variant:normal;font-stretch:normal;stroke:none;font-family:Formation Sans Regular;-inkscape-font-specification:Formation Sans Regular" />
      <path
         d="m 836.92218,673.29901 0,3.96484 4.375,0 0,-3.96484 z m 0,8.66797 0,24.41797 4.375,0 0,-24.41797 z"
         id="path4972"
         style="font-size:56px;font-variant:normal;font-stretch:normal;stroke:none;font-family:Formation Sans Regular;-inkscape-font-specification:Formation Sans Regular" />
      <path
         d="m 850.42999,681.96698 c -1.6224,2e-5 -3.00326,0.48765 -4.14258,1.46289 -1.13932,0.97528 -1.70898,2.15562 -1.70898,3.54102 l 0,3.74609 c 0,1.38543 0.56966,2.56577 1.70898,3.54102 1.13932,0.97527 2.52018,1.4629 4.14258,1.46289 l 11.67578,0 c 0.67446,10e-6 1.21222,0.17318 1.61329,0.51953 0.40102,0.34636 0.60154,0.80209 0.60156,1.36718 l 0,3.14454 c -2e-5,0.56511 -0.2051,1.02539 -0.61524,1.38086 -0.41017,0.35547 -0.95249,0.5332 -1.62695,0.5332 l -16.40625,0 0,3.71875 17.17188,0 c 1.62237,0 3.00323,-0.48307 4.14257,-1.44922 1.1393,-0.96614 1.70896,-2.14192 1.70899,-3.52734 l 0,-4.29297 c -3e-5,-1.38541 -0.56969,-2.56575 -1.70899,-3.54102 -1.13934,-0.97524 -2.5202,-1.46287 -4.14257,-1.46289 l -11.64844,0 c -0.67449,2e-5 -1.21681,-0.17772 -1.62696,-0.5332 -0.41016,-0.35546 -0.61524,-0.81574 -0.61523,-1.38086 l 0,-2.57031 c -10e-6,-0.56509 0.20507,-1.02537 0.61523,-1.38086 0.41015,-0.35545 0.95247,-0.53319 1.62696,-0.53321 7.2005,-0.0182 12.30466,-0.0273 15.3125,-0.0273 l 0,-3.71875 z"
         id="path4974"
         style="font-size:56px;font-variant:normal;font-stretch:normal;stroke:none;font-family:Formation Sans Regular;-inkscape-font-specification:Formation Sans Regular" />
      <path
         d="m 878.70343,681.96698 c -1.98699,2e-5 -3.68685,0.63804 -5.09961,1.91406 -1.41276,1.27607 -2.11914,2.80731 -2.11914,4.59375 l 0,17.91016 4.40234,0 c 0.0182,-1.23958 0.009,-2.91211 -0.0273,-5.01758 -0.0365,-2.10546 -0.041,-4.42056 -0.0137,-6.94531 0.0273,-2.52473 0.041,-4.19725 0.041,-5.01758 0,-1.00259 0.36914,-1.83201 1.10743,-2.48828 0.73827,-0.65623 1.65428,-0.98436 2.74804,-0.98438 l 6.61719,0 c 1.09373,2e-5 2.00519,0.30992 2.73438,0.92969 0.72914,0.61981 1.09373,1.41278 1.09375,2.37891 l 0,17.14453 4.40234,0 0,-17.14453 c -3e-5,-0.9479 0.37823,-1.73631 1.13476,-2.36524 0.75649,-0.62888 1.66339,-0.94334 2.72071,-0.94336 l 6.64453,0 c 1.09371,2e-5 2.00061,0.32815 2.7207,0.98438 0.72002,0.65627 1.08004,1.48569 1.08008,2.48828 -4e-5,0.82033 -4e-5,2.49285 0,5.01758 -4e-5,2.52475 -4e-5,4.83985 0,6.94531 -4e-5,2.10547 -4e-5,3.778 0,5.01758 l 4.42969,0 0,-17.91016 c -5e-5,-1.78644 -0.70187,-3.31768 -2.10547,-4.59375 -1.40369,-1.27602 -3.099,-1.91404 -5.08594,-1.91406 l -8.47656,0 c -1.03909,2e-5 -2.09182,0.29169 -3.1582,0.875 -1.06643,0.58336 -1.7637,1.33075 -2.0918,2.24219 -0.34638,-0.92967 -1.03908,-1.68162 -2.07813,-2.25586 -1.03908,-0.5742 -2.07814,-0.86131 -3.11718,-0.86133 z"
         id="path4976"
         style="font-size:56px;font-variant:normal;font-stretch:normal;stroke:none;font-family:Formation Sans Regular;-inkscape-font-specification:Formation Sans Regular" />
    </g>
    <g
       id="text4978"
       style="font-size:33.39131165px;font-style:normal;font-weight:normal;line-height:125%;letter-spacing:0px;word-spacing:0px;fill:#146286;fill-opacity:1;stroke:none;font-family:Sans">
      <path
         d="m 37.730049,1027.4653 -10.190219,19.7283 3.048913,0 3.097827,-6.0489 11.331524,0 3.097827,6.0489 3.03261,0 -10.173916,-19.7283 z m 1.614131,2.7229 4.336958,8.4782 -8.69022,0 z"
         id="path3052"
         style="letter-spacing:4.00695753px;fill:#146286;font-family:Formation Sans Regular;-inkscape-font-specification:Formation Sans Regular" />
      <path
         d="m 56.459837,1027.4653 0,2.4294 8.054349,0 0,17.2989 2.722827,0 0,-17.2989 8.070654,0 0,-2.4294 z"
         id="path3054"
         style="letter-spacing:4.00695753px;fill:#146286;font-family:Formation Sans Regular;-inkscape-font-specification:Formation Sans Regular" />
      <path
         d="m 106.1842,1027.4653 0,19.7283 -2.70653,0 0,-13.8913 -8.576085,13.4185 -2.51087,0 -8.576089,-13.4185 0,13.8913 -2.706522,0 0,-19.7283 2.282609,0 10.255437,16.2392 10.25544,-16.2392 z"
         id="path3056"
         style="letter-spacing:4.00695753px;fill:#146286;font-family:Formation Sans Regular;-inkscape-font-specification:Formation Sans Regular" />
      <path
         d="m 128.64376,1027.4653 c -1.22826,10e-5 -2.27989,0.4348 -3.15489,1.3044 -0.875,0.8696 -1.3125,1.9185 -1.3125,3.1467 l 0,10.8261 c 0,1.2283 0.4375,2.2772 1.3125,3.1468 0.875,0.8695 1.92663,1.3043 3.15489,1.3043 l 14.38044,0 0,-2.4456 -13.74457,0 c -0.68478,0 -1.25272,-0.2256 -1.7038,-0.6767 -0.45109,-0.4511 -0.67663,-1.0136 -0.67663,-1.6875 l 0,-10.1087 c 0,-0.6739 0.22554,-1.2391 0.67663,-1.6956 0.45108,-0.4565 1.01902,-0.6848 1.7038,-0.6848 l 13.74457,0 0,-2.4294 z"
         id="path3058"
         style="letter-spacing:4.00695753px;fill:#146286;font-family:Formation Sans Regular;-inkscape-font-specification:Formation Sans Regular" />
      <path
         d="m 153.1616,1032.6338 c -1.18479,0 -2.19837,0.3777 -3.04076,1.1332 -0.8424,0.7554 -1.26359,1.6657 -1.26359,2.7309 l 0,6.8316 c 0,1.0652 0.42119,1.9755 1.26359,2.731 0.84239,0.7554 1.85597,1.1331 3.04076,1.1331 l 7.01087,0 c 1.18477,0 2.19836,-0.3777 3.04076,-1.1331 0.84238,-0.7555 1.26357,-1.6658 1.26359,-2.731 l 0,-6.8316 c -2e-5,-1.0652 -0.42121,-1.9755 -1.26359,-2.7309 -0.8424,-0.7555 -1.85599,-1.1332 -3.04076,-1.1332 z m 0.61956,2.3805 c 2.05434,-0.022 3.97826,-0.022 5.77174,0 0.66304,0.011 1.21195,0.2092 1.64674,0.5951 0.43477,0.3858 0.65216,0.8723 0.65218,1.4592 l 0,5.7065 c -2e-5,0.587 -0.21741,1.0761 -0.65218,1.4674 -0.43479,0.3913 -0.9837,0.587 -1.64674,0.587 l -5.77174,0 c -0.66304,0 -1.21196,-0.1957 -1.64674,-0.587 -0.43478,-0.3913 -0.65217,-0.8804 -0.65217,-1.4674 l 0,-5.7065 c 0,-0.5869 0.21739,-1.0734 0.65217,-1.4592 0.43478,-0.3859 0.9837,-0.5843 1.64674,-0.5951 z"
         id="path3060"
         style="letter-spacing:4.00695753px;fill:#146286;font-family:Formation Sans Regular;-inkscape-font-specification:Formation Sans Regular" />
      <path
         d="m 185.17943,1036.5143 c -2e-5,-1.0653 -0.4185,-1.9783 -1.25544,-2.7392 -0.83697,-0.7608 -1.84784,-1.1413 -3.03261,-1.1413 l -6.45652,0 c -1.18479,0 -2.19566,0.3805 -3.03261,1.1413 -0.83696,0.7609 -1.25543,1.6739 -1.25543,2.7392 l 0,10.6793 2.625,0 0,-10.125 c -1e-5,-0.5978 0.21738,-1.0924 0.65217,-1.4837 0.43478,-0.3913 0.97826,-0.5869 1.63044,-0.587 l 5.20108,0 c 0.65217,10e-5 1.19564,0.1957 1.63044,0.587 0.43477,0.3913 0.65216,0.8859 0.65217,1.4837 l 0,10.125 2.64131,0 z"
         id="path3062"
         style="letter-spacing:4.00695753px;fill:#146286;font-family:Formation Sans Regular;-inkscape-font-specification:Formation Sans Regular" />
      <path
         d="m 194.33857,1032.6338 c -0.9674,0 -1.79077,0.2908 -2.47011,0.8723 -0.67935,0.5815 -1.01902,1.2853 -1.01902,2.1114 l 0,2.2337 c 0,0.8261 0.33967,1.5299 1.01902,2.1114 0.67934,0.5816 1.50271,0.8723 2.47011,0.8723 l 6.96196,0 c 0.40216,0 0.72281,0.1033 0.96195,0.3098 0.23912,0.2065 0.35869,0.4783 0.3587,0.8152 l 0,1.875 c -1e-5,0.337 -0.1223,0.6114 -0.36685,0.8234 -0.24458,0.2119 -0.56795,0.3179 -0.97011,0.3179 l -9.78261,0 0,2.2174 10.23913,0 c 0.96738,0 1.79075,-0.288 2.47011,-0.8641 0.67934,-0.5761 1.01901,-1.2772 1.01903,-2.1033 l 0,-2.5598 c -2e-5,-0.8261 -0.33969,-1.5299 -1.01903,-2.1114 -0.67936,-0.5815 -1.50273,-0.8723 -2.47011,-0.8723 l -6.94565,0 c -0.40218,0 -0.72555,-0.1059 -0.97011,-0.3179 -0.24457,-0.212 -0.36685,-0.4864 -0.36685,-0.8234 l 0,-1.5326 c 0,-0.3369 0.12228,-0.6114 0.36685,-0.8234 0.24456,-0.2119 0.56793,-0.3179 0.97011,-0.3179 4.29347,-0.011 7.33695,-0.016 9.13044,-0.016 l 0,-2.2174 z"
         id="path3064"
         style="letter-spacing:4.00695753px;fill:#146286;font-family:Formation Sans Regular;-inkscape-font-specification:Formation Sans Regular" />
      <path
         d="m 225.93248,1043.3295 c -2e-5,1.0652 -0.41849,1.9755 -1.25544,2.731 -0.83697,0.7554 -1.84783,1.1331 -3.0326,1.1331 l -6.45653,0 c -1.18478,0 -2.19565,-0.3777 -3.03261,-1.1331 -0.83696,-0.7555 -1.25543,-1.6658 -1.25543,-2.731 l 0,-10.6957 2.625,0 0,10.1413 c -1e-5,0.5979 0.21739,1.0897 0.65217,1.4756 0.43478,0.3858 0.97826,0.5788 1.63044,0.5788 l 5.20109,0 c 0.65216,0 1.19564,-0.193 1.63043,-0.5788 0.43477,-0.3859 0.65216,-0.8777 0.65217,-1.4756 l 0,-10.1413 2.64131,0 z"
         id="path3066"
         style="letter-spacing:4.00695753px;fill:#146286;font-family:Formation Sans Regular;-inkscape-font-specification:Formation Sans Regular" />
      <path
         d="m 231.92858,1027.4653 2.60869,0 0,19.7283 -2.60869,0 z"
         id="path3068"
         style="letter-spacing:4.00695753px;fill:#146286;font-family:Formation Sans Regular;-inkscape-font-specification:Formation Sans Regular" />
      <path
         d="m 240.50074,1029.8295 c 0.0109,4.6739 0.0163,9.1739 0.0163,13.5 0,1.0652 0.42119,1.9755 1.26359,2.731 0.84238,0.7554 1.85597,1.1331 3.04076,1.1331 l 4.97282,0 0,-2.3478 -4.59782,0 c -0.58696,0 -1.07609,-0.2065 -1.46739,-0.6196 -0.39131,-0.413 -0.58697,-0.9022 -0.58696,-1.4674 l 0,-7.7609 6.65217,0 0,-2.3641 -6.66848,0 0,-2.8043 z"
         id="path3070"
         style="letter-spacing:4.00695753px;fill:#146286;font-family:Formation Sans Regular;-inkscape-font-specification:Formation Sans Regular" />
      <path
         d="m 255.92075,1027.4653 0,2.3642 2.60869,0 0,-2.3642 z m 0,5.1685 0,14.5598 2.60869,0 0,-14.5598 z"
         id="path3072"
         style="letter-spacing:4.00695753px;fill:#146286;font-family:Formation Sans Regular;-inkscape-font-specification:Formation Sans Regular" />
      <path
         d="m 279.52554,1036.5143 c -10e-6,-1.0653 -0.41849,-1.9783 -1.25543,-2.7392 -0.83697,-0.7608 -1.84784,-1.1413 -3.03261,-1.1413 l -6.45652,0 c -1.18479,0 -2.19566,0.3805 -3.03261,1.1413 -0.83696,0.7609 -1.25544,1.6739 -1.25544,2.7392 l 0,10.6793 2.625,0 0,-10.125 c 0,-0.5978 0.21739,-1.0924 0.65218,-1.4837 0.43477,-0.3913 0.97825,-0.5869 1.63043,-0.587 l 5.20109,0 c 0.65216,10e-5 1.19564,0.1957 1.63043,0.587 0.43477,0.3913 0.65216,0.8859 0.65218,1.4837 l 0,10.125 2.6413,0 z"
         id="path3074"
         style="letter-spacing:4.00695753px;fill:#146286;font-family:Formation Sans Regular;-inkscape-font-specification:Formation Sans Regular" />
      <path
         d="m 289.51619,1032.6501 c -1.19566,0 -2.21468,0.375 -3.05707,1.125 -0.84239,0.75 -1.26358,1.6576 -1.26358,2.7228 l 0,6.8316 c 0,1.0652 0.42119,1.9755 1.26358,2.731 0.84239,0.7554 1.86141,1.1331 3.05707,1.1331 l 7.8587,0 0,0.7337 c -2e-5,0.5652 -0.19567,1.0543 -0.58696,1.4674 -0.39132,0.413 -0.88045,0.6196 -1.46739,0.6196 l -8.80435,0 0,2.3478 9.16305,0 c 1.19564,0 2.21466,-0.3777 3.05706,-1.1332 0.84238,-0.7554 1.26357,-1.6657 1.26359,-2.7309 l 0,-1.3044 0,-14.5435 z m 0.60326,2.3478 7.25544,0 0,9.8316 c -1.30436,0 -3.80436,0.01 -7.5,0.016 -0.58697,0 -1.0761,-0.2038 -1.4674,-0.6114 -0.3913,-0.4076 -0.58696,-0.8941 -0.58695,-1.4593 l 0,-5.7228 c -10e-6,-0.5869 0.21739,-1.0761 0.65217,-1.4674 0.43478,-0.3913 0.98369,-0.5869 1.64674,-0.587 z"
         id="path3076"
         style="letter-spacing:4.00695753px;fill:#146286;font-family:Formation Sans Regular;-inkscape-font-specification:Formation Sans Regular" />
    </g>
  </g>
</svg>
